<svg width="97" height="97" viewBox="0 0 97 97" fill="none" xmlns="http://www.w3.org/2000/svg">
<circle cx="48.5" cy="48.5" r="43.5" fill="black" stroke="#F24E4E" stroke-width="10"/>
<g clip-path="url(#clip0_206_34)">
<path fill-rule="evenodd" clip-rule="evenodd" d="M48.5 80C57.1195 80 65.386 76.6813 71.481 70.7739C77.5759 64.8665 81 56.8543 81 48.5C81 40.1457 77.5759 32.1335 71.481 26.2261C65.386 20.3187 57.1195 17 48.5 17C39.8805 17 31.614 20.3187 25.519 26.2261C19.4241 32.1335 16 40.1457 16 48.5C16 56.8543 19.4241 64.8665 25.519 70.7739C31.614 76.6813 39.8805 80 48.5 80ZM60.8134 32.75C56.0943 32.7503 51.5686 34.5675 48.2319 37.8018L47.2975 38.7035C46.6637 39.3217 46.0462 39.9635 45.4613 40.6329H38.9531C38.3454 40.633 37.7477 40.7839 37.2172 41.0713C36.6867 41.3588 36.241 41.7731 35.9225 42.2748L32.445 47.7401C32.3223 47.9324 32.2469 48.1495 32.2244 48.3745C32.202 48.5996 32.2332 48.8267 32.3157 49.0382C32.3981 49.2497 32.5295 49.4401 32.6999 49.5946C32.8702 49.7491 33.0749 49.8636 33.2981 49.9293L39.6031 51.8075L45.0875 57.1231L47.0294 63.2381C47.0973 63.4538 47.2154 63.6517 47.3745 63.8163C47.5337 63.981 47.7296 64.1081 47.9473 64.1879C48.165 64.2678 48.3987 64.2982 48.6304 64.2769C48.8621 64.2556 49.0857 64.1831 49.2841 64.0649L54.9269 60.6984C55.4438 60.3892 55.8705 59.957 56.1663 59.4429C56.4621 58.9287 56.6172 58.3497 56.6169 57.761V51.4413C57.3075 50.8743 57.9697 50.2798 58.6075 49.6616L59.5419 48.7559C62.8764 45.5222 64.7497 41.1374 64.75 36.5654V36.1992C64.75 35.2845 64.3751 34.4071 63.7077 33.7603C63.0403 33.1134 62.1351 32.75 61.1912 32.75H60.8134ZM40.0662 60.8795C39.886 61.2709 39.6263 61.6231 39.3025 61.9151C37.7019 63.4664 34.1919 64.1319 32.7213 64.3524C32.6419 64.3654 32.5606 64.3599 32.4839 64.3362C32.4073 64.3125 32.3376 64.2714 32.2808 64.2163C32.2239 64.1611 32.1814 64.0936 32.157 64.0193C32.1326 63.945 32.1269 63.8662 32.1403 63.7893C32.3678 62.3639 33.0544 58.9619 34.6591 57.4106C35.1879 56.855 35.9035 56.5001 36.6777 56.4094C37.4519 56.3187 38.2342 56.4982 38.8843 56.9156C39.5345 57.333 40.01 57.9611 40.2259 58.6875C40.4417 59.4138 40.3837 60.1909 40.0622 60.8795H40.0662Z" fill="#F24E4E"/>
</g>
<defs>
<clipPath id="clip0_206_34">
<rect width="65" height="63" fill="white" transform="translate(16 17)"/>
</clipPath>
</defs>
</svg>
