<?xml version="1.0" encoding="UTF-8" standalone="no"?>
<svg
   height="512px"
   style="enable-background:new 0 0 512 512;"
   version="1.1"
   viewBox="0 0 512 512"
   width="512px"
   xml:space="preserve"
   id="svg301"
   sodipodi:docname="Youtube.svg"
   inkscape:version="1.2 (dc2aedaf03, 2022-05-15)"
   xmlns:inkscape="http://www.inkscape.org/namespaces/inkscape"
   xmlns:sodipodi="http://sodipodi.sourceforge.net/DTD/sodipodi-0.dtd"
   xmlns="http://www.w3.org/2000/svg"
   xmlns:svg="http://www.w3.org/2000/svg"><defs
     id="defs305" /><sodipodi:namedview
     id="namedview303"
     pagecolor="#505050"
     bordercolor="#eeeeee"
     borderopacity="1"
     inkscape:showpageshadow="0"
     inkscape:pageopacity="0"
     inkscape:pagecheckerboard="0"
     inkscape:deskcolor="#505050"
     showgrid="false"
     inkscape:zoom="1.3691406"
     inkscape:cx="196.10842"
     inkscape:cy="256.36519"
     inkscape:window-width="1600"
     inkscape:window-height="839"
     inkscape:window-x="0"
     inkscape:window-y="0"
     inkscape:window-maximized="1"
     inkscape:current-layer="svg301" /><path
     id="path293"
     style="fill:#ffffff"
     d="M 256 94.28125 C 256 94.28125 112.15521 94.281088 76.28125 103.95508 C 56.49027 109.28007 40.903276 124.96869 35.613281 144.88867 C 26.001291 180.99364 26.001953 256.32617 26.001953 256.32617 C 26.001953 256.32617 26.001291 331.66166 35.613281 367.76562 C 40.903276 387.68561 56.49027 402.72088 76.28125 408.04688 C 112.15521 417.71987 256 417.71875 256 417.71875 C 256 417.71875 399.84483 417.71891 435.7168 408.04492 C 455.50878 402.71893 471.09572 387.68365 476.38672 367.76367 C 485.99871 331.65971 485.99805 256.32617 485.99805 256.32617 C 485.99805 256.32617 485.99871 180.99464 476.38672 144.88867 C 471.09572 124.96969 455.50878 109.28007 435.7168 103.95508 C 399.84483 94.282088 256 94.28125 256 94.28125 z M 208.95312 187.92969 L 329.17969 256.32812 L 208.95312 324.72266 L 208.95312 187.92969 z " /><g
     id="Layer_1" /></svg>
