<svg width="97" height="97" viewBox="0 0 97 97" fill="none" xmlns="http://www.w3.org/2000/svg">
<circle cx="48.5" cy="48.5" r="43.5" fill="black" stroke="#EEBE40" stroke-width="10"/>
<path d="M48.5 20.0625C42.8756 20.0625 37.3775 21.7303 32.701 24.8551C28.0244 27.9798 24.3795 32.4212 22.2272 37.6174C20.0748 42.8137 19.5116 48.5315 20.6089 54.0479C21.7062 59.5642 24.4146 64.6313 28.3916 68.6083C32.3687 72.5854 37.4358 75.2938 42.9521 76.3911C48.4685 77.4883 54.1863 76.9252 59.3826 74.7728C64.5788 72.6205 69.0202 68.9756 72.1449 64.299C75.2697 59.6225 76.9375 54.1244 76.9375 48.5C76.9289 40.9605 73.93 33.7324 68.5988 28.4012C63.2676 23.0699 56.0395 20.0711 48.5 20.0625ZM48.5 72.875C42.0353 72.875 35.8355 70.3069 31.2643 65.7357C26.6931 61.1645 24.125 54.9647 24.125 48.5C24.125 42.0353 26.6931 35.8355 31.2643 31.2643C35.8355 26.6931 42.0353 24.125 48.5 24.125V48.5L65.727 65.727C63.4678 67.9943 60.7829 69.793 57.8266 71.0196C54.8703 72.2463 51.7007 72.8768 48.5 72.875Z" fill="#EEBE40"/>
</svg>
