<svg width="74" height="74" viewBox="0 0 74 74" fill="none" xmlns="http://www.w3.org/2000/svg">
<circle cx="37" cy="37" r="32" fill="black" stroke="#88EC3A" stroke-width="10"/>
<g clip-path="url(#clip0_209_26)">
<path fill-rule="evenodd" clip-rule="evenodd" d="M13.732 37C13.732 30.8289 16.1834 24.9106 20.547 20.547C24.9106 16.1834 30.8289 13.7319 37 13.7319C43.1711 13.7319 49.0894 16.1834 53.453 20.547C57.8166 24.9106 60.268 30.8289 60.268 37C60.268 43.171 57.8166 49.0894 53.453 53.453C49.0894 57.8166 43.1711 60.268 37 60.268C30.8289 60.268 24.9106 57.8166 20.547 53.453C16.1834 49.0894 13.732 43.171 13.732 37H13.732ZM35.6722 46.9587L49.0684 30.2119L46.6485 28.276L35.2254 42.5502L27.1344 35.8087L25.1488 38.1913L35.6722 46.9618V46.9587Z" fill="#88EC3A"/>
</g>
<defs>
<clipPath id="clip0_209_26">
<rect width="46.5361" height="46.5361" fill="white" transform="translate(13.732 13.7319)"/>
</clipPath>
</defs>
</svg>
